<svg width="43" height="43" viewBox="0 0 43 43" fill="none" xmlns="http://www.w3.org/2000/svg">
<path d="M19.2605 25.9791L23.7396 21.5L19.2605 17.0208" stroke="#14B270" stroke-width="2.6875" stroke-linecap="round" stroke-linejoin="round"/>
<path d="M34.0417 10.75L34.0417 32.25C34.0417 34.1507 33.2866 35.9736 31.9426 37.3176C30.5986 38.6616 28.7757 39.4166 26.875 39.4166L16.125 39.4166C14.2243 39.4166 12.4014 38.6616 11.0574 37.3176C9.71341 35.9736 8.95835 34.1507 8.95835 32.25L8.95835 10.75C8.95835 8.84926 9.71341 7.02639 11.0574 5.68238C12.4014 4.33837 14.2243 3.58331 16.125 3.58331L26.875 3.58331C28.7757 3.58331 30.5986 4.33837 31.9426 5.68238C33.2866 7.02639 34.0417 8.84926 34.0417 10.75Z" stroke="#14B270" stroke-width="2.6875" stroke-linecap="round" stroke-linejoin="round"/>
</svg>
