<svg width="64" height="64" viewBox="0 0 64 64" fill="none" xmlns="http://www.w3.org/2000/svg">
<path d="M31.992 41.232C33.7876 41.232 35.3911 40.6836 36.8027 39.5867C38.2124 38.4916 39.2436 37.1147 39.896 35.456H24.104C24.7582 37.1147 25.7876 38.4924 27.192 39.5893C28.5964 40.6844 30.1964 41.232 31.992 41.232ZM26.3733 31.7947C27.2036 31.7947 27.9049 31.504 28.4773 30.9227C29.0498 30.3431 29.336 29.6382 29.336 28.808C29.336 27.9796 29.0453 27.2782 28.464 26.704C27.8844 26.1316 27.1796 25.8453 26.3493 25.8453C25.5191 25.8453 24.8178 26.136 24.2453 26.7173C23.6729 27.2987 23.3867 28.0036 23.3867 28.832C23.3867 29.6622 23.6773 30.3636 24.2587 30.936C24.8382 31.5084 25.5431 31.7947 26.3733 31.7947ZM37.6533 31.7947C38.4853 31.7947 39.1876 31.504 39.76 30.9227C40.3324 30.3431 40.6187 29.6382 40.6187 28.808C40.6187 27.9796 40.328 27.2782 39.7467 26.704C39.1653 26.1316 38.4604 25.8453 37.632 25.8453C36.8018 25.8453 36.1004 26.136 35.528 26.7173C34.9556 27.2987 34.6693 28.0036 34.6693 28.832C34.6693 29.6622 34.96 30.3636 35.5413 30.936C36.1209 31.5084 36.8258 31.7947 37.656 31.7947M21.6693 18.9147L28.624 9.656C29.0471 9.08711 29.5502 8.66933 30.1333 8.40267C30.7147 8.13422 31.3369 8 32 8C32.6631 8 33.2862 8.13333 33.8693 8.4C34.4524 8.66667 34.9556 9.08533 35.3787 9.656L42.3333 18.912L53.0533 22.56C54.0027 22.88 54.7333 23.4187 55.2453 24.176C55.7591 24.9316 56.016 25.7662 56.016 26.68C56.016 27.1013 55.9538 27.52 55.8293 27.936C55.7049 28.352 55.5022 28.7511 55.2213 29.1333L48.1947 38.6613L48.4613 48.8747C48.5058 50.1298 48.0916 51.1867 47.2187 52.0453C46.344 52.904 45.3271 53.3333 44.168 53.3333L42.96 53.184L32 49.9547L21.04 53.184C20.8178 53.2729 20.6044 53.32 20.4 53.3253C20.192 53.3307 20.0027 53.3333 19.832 53.3333C18.648 53.3333 17.6258 52.904 16.7653 52.0453C15.9031 51.1867 15.4942 50.1307 15.5387 48.8773L15.8053 38.5947L8.79467 29.1333C8.512 28.7476 8.30933 28.3449 8.18667 27.9253C8.06222 27.5058 8 27.0862 8 26.6667C8 25.7671 8.264 24.9298 8.792 24.1547C9.31822 23.3813 10.0542 22.832 11 22.5067L21.6693 18.9147ZM23.3467 21.2053L11.8987 25.0613C11.3849 25.232 11.0338 25.5822 10.8453 26.112C10.6587 26.6418 10.736 27.1289 11.0773 27.5733L18.5227 37.8133L18.2027 48.9067C18.1707 49.488 18.3769 49.9502 18.8213 50.2933C19.2658 50.6347 19.7609 50.72 20.3067 50.5493L32 47.1893L43.6933 50.616C44.2391 50.7867 44.7342 50.7013 45.1787 50.36C45.6231 50.0169 45.8284 49.5547 45.7947 48.9733L45.4747 37.816L52.9227 27.7093C53.264 27.2649 53.3413 26.7769 53.1547 26.2453C52.9662 25.7156 52.6151 25.3653 52.1013 25.1947L40.656 21.2053L33.2827 11.384C32.9751 10.9396 32.5476 10.7173 32 10.7173C31.4524 10.7173 31.0258 10.9396 30.72 11.384L23.3467 21.2053Z" fill="#23D7C2"/>
</svg>
