<svg width="43" height="43" viewBox="0 0 43 43" fill="none" xmlns="http://www.w3.org/2000/svg">
<path d="M21.4946 27.7028C22.701 27.7028 23.7784 27.3343 24.7268 26.5973C25.674 25.8615 26.3668 24.9364 26.8051 23.822H16.1949C16.6344 24.9364 17.326 25.8621 18.2696 26.5991C19.2132 27.3349 20.2882 27.7028 21.4946 27.7028ZM17.7196 21.362C18.2774 21.362 18.7486 21.1668 19.1332 20.7762C19.5178 20.3868 19.7101 19.9132 19.7101 19.3554C19.7101 18.7988 19.5148 18.3276 19.1242 17.9418C18.7349 17.5571 18.2613 17.3648 17.7035 17.3648C17.1457 17.3648 16.6744 17.5601 16.2898 17.9507C15.9052 18.3413 15.7129 18.8149 15.7129 19.3715C15.7129 19.9293 15.9082 20.4005 16.2988 20.7851C16.6882 21.1697 17.1618 21.362 17.7196 21.362ZM25.2983 21.362C25.8573 21.362 26.3291 21.1668 26.7137 20.7762C27.0984 20.3868 27.2907 19.9132 27.2907 19.3554C27.2907 18.7988 27.0954 18.3276 26.7048 17.9418C26.3142 17.5571 25.8406 17.3648 25.284 17.3648C24.7262 17.3648 24.255 17.5601 23.8704 17.9507C23.4858 18.3413 23.2935 18.8149 23.2935 19.3715C23.2935 19.9293 23.4887 20.4005 23.8793 20.7851C24.2687 21.1697 24.7423 21.362 25.3001 21.362M14.5591 12.7083L19.2318 6.48763C19.516 6.1054 19.8541 5.82471 20.2458 5.64554C20.6364 5.46518 21.0545 5.375 21.5 5.375C21.9455 5.375 22.3642 5.46458 22.756 5.64375C23.1477 5.82292 23.4858 6.10421 23.77 6.48763L28.4427 12.7065L35.6452 15.1575C36.283 15.3725 36.774 15.7344 37.118 16.2433C37.4632 16.7509 37.6358 17.3117 37.6358 17.9256C37.6358 18.2087 37.5939 18.49 37.5103 18.7695C37.4267 19.049 37.2906 19.3172 37.1018 19.574L32.3808 25.9756L32.56 32.8377C32.5898 33.6809 32.3115 34.391 31.725 34.968C31.1374 35.5449 30.4542 35.8333 29.6754 35.8333L28.8638 35.733L21.5 33.5633L14.1362 35.733C13.9869 35.7927 13.8436 35.8244 13.7062 35.828C13.5665 35.8315 13.4393 35.8333 13.3246 35.8333C12.5291 35.8333 11.8423 35.5449 11.2642 34.968C10.6849 34.391 10.4102 33.6815 10.44 32.8395L10.6192 25.9308L5.90892 19.574C5.719 19.3148 5.58283 19.0442 5.50042 18.7623C5.41681 18.4804 5.375 18.1986 5.375 17.9167C5.375 17.3123 5.55237 16.7497 5.90712 16.2289C6.26068 15.7093 6.75518 15.3402 7.39062 15.1217L14.5591 12.7083Z" fill="#18E772"/>
</svg>
