<svg width="146" height="45" viewBox="0 0 146 45" fill="none" xmlns="http://www.w3.org/2000/svg">
<path d="M57.86 30L53.32 16H57.4L61.22 28.12H59.16L63.18 16H66.82L70.62 28.12H68.64L72.58 16H76.36L71.82 30H67.58L64.34 19.7H65.48L62.1 30H57.86ZM82.4781 30.18C81.1981 30.18 80.0781 29.94 79.1181 29.46C78.1715 28.9667 77.4315 28.3 76.8981 27.46C76.3781 26.6067 76.1181 25.64 76.1181 24.56C76.1181 23.48 76.3715 22.52 76.8781 21.68C77.3981 20.8267 78.1115 20.1667 79.0181 19.7C79.9248 19.22 80.9448 18.98 82.0781 18.98C83.1448 18.98 84.1181 19.2 84.9981 19.64C85.8781 20.0667 86.5781 20.7 87.0981 21.54C87.6181 22.38 87.8781 23.4 87.8781 24.6C87.8781 24.7333 87.8715 24.8867 87.8581 25.06C87.8448 25.2333 87.8315 25.3933 87.8181 25.54H79.2381V23.54H85.7981L84.3581 24.1C84.3715 23.6067 84.2781 23.18 84.0781 22.82C83.8915 22.46 83.6248 22.18 83.2781 21.98C82.9448 21.78 82.5515 21.68 82.0981 21.68C81.6448 21.68 81.2448 21.78 80.8981 21.98C80.5648 22.18 80.3048 22.4667 80.1181 22.84C79.9315 23.2 79.8381 23.6267 79.8381 24.12V24.7C79.8381 25.2333 79.9448 25.6933 80.1581 26.08C80.3848 26.4667 80.7048 26.7667 81.1181 26.98C81.5315 27.18 82.0248 27.28 82.5981 27.28C83.1315 27.28 83.5848 27.2067 83.9581 27.06C84.3448 26.9 84.7248 26.66 85.0981 26.34L87.0981 28.42C86.5781 28.9933 85.9381 29.4333 85.1781 29.74C84.4181 30.0333 83.5181 30.18 82.4781 30.18ZM96.4502 30.18C95.4768 30.18 94.6635 29.98 94.0102 29.58C93.3702 29.18 92.8902 28.5667 92.5702 27.74C92.2502 26.9133 92.0902 25.8533 92.0902 24.56C92.0902 23.2933 92.2568 22.2467 92.5902 21.42C92.9368 20.5933 93.4368 19.98 94.0902 19.58C94.7435 19.18 95.5302 18.98 96.4502 18.98C97.4368 18.98 98.3302 19.2067 99.1302 19.66C99.9435 20.1133 100.583 20.76 101.05 21.6C101.53 22.4267 101.77 23.4133 101.77 24.56C101.77 25.72 101.53 26.72 101.05 27.56C100.583 28.3867 99.9435 29.0333 99.1302 29.5C98.3302 29.9533 97.4368 30.18 96.4502 30.18ZM89.6302 30V15.16H93.4302V20.98L93.2302 24.56L93.2502 28.14V30H89.6302ZM95.6502 27.16C96.0768 27.16 96.4568 27.06 96.7902 26.86C97.1368 26.66 97.4102 26.3667 97.6102 25.98C97.8235 25.58 97.9302 25.1067 97.9302 24.56C97.9302 24.0133 97.8235 23.5533 97.6102 23.18C97.4102 22.7933 97.1368 22.5 96.7902 22.3C96.4568 22.1 96.0768 22 95.6502 22C95.2235 22 94.8368 22.1 94.4902 22.3C94.1568 22.5 93.8835 22.7933 93.6702 23.18C93.4702 23.5533 93.3702 24.0133 93.3702 24.56C93.3702 25.1067 93.4702 25.58 93.6702 25.98C93.8835 26.3667 94.1568 26.66 94.4902 26.86C94.8368 27.06 95.2235 27.16 95.6502 27.16ZM108.636 30.28C107.49 30.28 106.383 30.14 105.316 29.86C104.263 29.5667 103.403 29.1933 102.736 28.74L104.036 25.82C104.663 26.22 105.383 26.5533 106.196 26.82C107.023 27.0733 107.843 27.2 108.656 27.2C109.203 27.2 109.643 27.1533 109.976 27.06C110.31 26.9533 110.55 26.82 110.696 26.66C110.856 26.4867 110.936 26.2867 110.936 26.06C110.936 25.74 110.79 25.4867 110.496 25.3C110.203 25.1133 109.823 24.96 109.356 24.84C108.89 24.72 108.37 24.6 107.796 24.48C107.236 24.36 106.67 24.2067 106.096 24.02C105.536 23.8333 105.023 23.5933 104.556 23.3C104.09 22.9933 103.71 22.6 103.416 22.12C103.123 21.6267 102.976 21.0067 102.976 20.26C102.976 19.42 103.203 18.66 103.656 17.98C104.123 17.3 104.816 16.7533 105.736 16.34C106.656 15.9267 107.803 15.72 109.176 15.72C110.096 15.72 110.996 15.8267 111.876 16.04C112.77 16.24 113.563 16.54 114.256 16.94L113.036 19.88C112.37 19.52 111.71 19.2533 111.056 19.08C110.403 18.8933 109.77 18.8 109.156 18.8C108.61 18.8 108.17 18.86 107.836 18.98C107.503 19.0867 107.263 19.2333 107.116 19.42C106.97 19.6067 106.896 19.82 106.896 20.06C106.896 20.3667 107.036 20.6133 107.316 20.8C107.61 20.9733 107.99 21.12 108.456 21.24C108.936 21.3467 109.456 21.46 110.016 21.58C110.59 21.7 111.156 21.8533 111.716 22.04C112.29 22.2133 112.81 22.4533 113.276 22.76C113.743 23.0533 114.116 23.4467 114.396 23.94C114.69 24.42 114.836 25.0267 114.836 25.76C114.836 26.5733 114.603 27.3267 114.136 28.02C113.683 28.7 112.996 29.2467 112.076 29.66C111.17 30.0733 110.023 30.28 108.636 30.28ZM121.326 30.18C119.939 30.18 118.859 29.84 118.086 29.16C117.312 28.4667 116.926 27.4267 116.926 26.04V16.74H120.726V26C120.726 26.3867 120.832 26.6933 121.046 26.92C121.259 27.1333 121.532 27.24 121.866 27.24C122.319 27.24 122.706 27.1267 123.026 26.9L123.966 29.56C123.646 29.7733 123.252 29.9267 122.786 30.02C122.319 30.1267 121.832 30.18 121.326 30.18ZM115.346 22.4V19.56H123.206V22.4H115.346ZM132.051 30V27.98L131.791 27.48V23.76C131.791 23.16 131.604 22.7 131.231 22.38C130.871 22.0467 130.291 21.88 129.491 21.88C128.971 21.88 128.444 21.9667 127.911 22.14C127.378 22.3 126.924 22.5267 126.551 22.82L125.271 20.24C125.884 19.84 126.618 19.5333 127.471 19.32C128.338 19.0933 129.198 18.98 130.051 18.98C131.811 18.98 133.171 19.3867 134.131 20.2C135.104 21 135.591 22.26 135.591 23.98V30H132.051ZM128.851 30.18C127.984 30.18 127.251 30.0333 126.651 29.74C126.051 29.4467 125.591 29.0467 125.271 28.54C124.964 28.0333 124.811 27.4667 124.811 26.84C124.811 26.1733 124.978 25.6 125.311 25.12C125.658 24.6267 126.184 24.2533 126.891 24C127.598 23.7333 128.511 23.6 129.631 23.6H132.191V25.58H130.151C129.538 25.58 129.104 25.68 128.851 25.88C128.611 26.08 128.491 26.3467 128.491 26.68C128.491 27.0133 128.618 27.28 128.871 27.48C129.124 27.68 129.471 27.78 129.911 27.78C130.324 27.78 130.698 27.68 131.031 27.48C131.378 27.2667 131.631 26.9467 131.791 26.52L132.311 27.92C132.111 28.6667 131.718 29.2333 131.131 29.62C130.558 29.9933 129.798 30.18 128.851 30.18ZM137.99 30V19.16H141.61V22.32L141.07 21.42C141.39 20.6067 141.91 20 142.63 19.6C143.35 19.1867 144.223 18.98 145.25 18.98V22.4C145.076 22.3733 144.923 22.36 144.79 22.36C144.67 22.3467 144.536 22.34 144.39 22.34C143.616 22.34 142.99 22.5533 142.51 22.98C142.03 23.3933 141.79 24.0733 141.79 25.02V30H137.99Z" fill="#14B270"/>
<path d="M22.9666 33.7406C22.399 33.2623 21.5669 33.271 21.0095 33.7612L10.9921 42.5698L2.39019 24.7584H11.5C12.0896 24.7584 12.6245 24.413 12.8671 23.8756L22.0901 3.44602L32.667 23.9462C32.9243 24.445 33.4387 24.7584 34 24.7584H42.56L33.5172 42.6316L22.9666 33.7406Z" stroke="#14B270" stroke-width="3" stroke-linejoin="round"/>
</svg>
